<svg width="250" height="48" viewBox="0 0 250 48" fill="none" xmlns="http://www.w3.org/2000/svg">
<path d="M2.52841 39V9.90909H14.0057C16.2027 9.90909 18.0777 10.3021 19.6307 11.0881C21.1932 11.8646 22.3816 12.9678 23.196 14.3977C24.0199 15.8182 24.4318 17.4896 24.4318 19.4119C24.4318 21.3437 24.0152 23.0057 23.1818 24.3977C22.3485 25.7803 21.1411 26.8409 19.5597 27.5795C17.9877 28.3182 16.0843 28.6875 13.8494 28.6875H6.16477V23.7443H12.8551C14.0294 23.7443 15.0047 23.5833 15.7812 23.2614C16.5578 22.9394 17.1354 22.4564 17.5142 21.8125C17.9025 21.1686 18.0966 20.3684 18.0966 19.4119C18.0966 18.446 17.9025 17.6316 17.5142 16.9688C17.1354 16.3059 16.553 15.804 15.767 15.4631C14.9905 15.1127 14.0104 14.9375 12.8267 14.9375H8.67898V39H2.52841ZM18.2386 25.7614L25.4688 39H18.679L11.6051 25.7614H18.2386ZM38.2564 39.4261C36.0121 39.4261 34.0803 38.9716 32.4609 38.0625C30.8511 37.1439 29.6106 35.8466 28.7393 34.1705C27.8681 32.4848 27.4325 30.4915 27.4325 28.1903C27.4325 25.946 27.8681 23.9763 28.7393 22.2812C29.6106 20.5862 30.8369 19.2652 32.4183 18.3182C34.0092 17.3712 35.8748 16.8977 38.0149 16.8977C39.4543 16.8977 40.7943 17.1297 42.0348 17.5938C43.2848 18.0483 44.3738 18.7348 45.3018 19.6534C46.2393 20.572 46.9685 21.7273 47.4893 23.1193C48.0102 24.5019 48.2706 26.1212 48.2706 27.9773V29.6392H29.8473V25.8892H42.5746C42.5746 25.018 42.3852 24.2462 42.0064 23.5739C41.6276 22.9015 41.102 22.3759 40.4297 21.9972C39.7668 21.6089 38.995 21.4148 38.1143 21.4148C37.1958 21.4148 36.3814 21.6278 35.6712 22.054C34.9704 22.4706 34.4212 23.0341 34.0234 23.7443C33.6257 24.4451 33.4221 25.2263 33.4126 26.0881V29.6534C33.4126 30.733 33.6115 31.6657 34.0092 32.4517C34.4164 33.2377 34.9893 33.8438 35.728 34.2699C36.4666 34.696 37.3426 34.9091 38.3558 34.9091C39.0282 34.9091 39.6437 34.8144 40.2024 34.625C40.7611 34.4356 41.2393 34.1515 41.6371 33.7727C42.0348 33.3939 42.3378 32.9299 42.5462 32.3807L48.1428 32.75C47.8587 34.0947 47.2763 35.2689 46.3956 36.2727C45.5244 37.267 44.3975 38.0436 43.0149 38.6023C41.6418 39.1515 40.0556 39.4261 38.2564 39.4261ZM55.3693 47.1818C54.6023 47.1818 53.8826 47.1203 53.2102 46.9972C52.5473 46.8835 51.9981 46.7367 51.5625 46.5568L52.9261 42.0398C53.6364 42.2576 54.2756 42.3759 54.8438 42.3949C55.4214 42.4138 55.9186 42.2813 56.3352 41.9972C56.7614 41.7131 57.107 41.2301 57.3722 40.5483L57.7273 39.625L49.9006 17.1818H56.2642L60.7812 33.2045H61.0085L65.5682 17.1818H71.9744L63.4943 41.358C63.0871 42.5322 62.5331 43.5549 61.8324 44.4261C61.1411 45.3068 60.2652 45.9839 59.2045 46.4574C58.1439 46.9403 56.8655 47.1818 55.3693 47.1818ZM81.392 9.90909V12.9773C81.392 13.8485 81.2216 14.7386 80.8807 15.6477C80.5492 16.5473 80.1042 17.3996 79.5455 18.2045C78.9867 19 78.3759 19.6771 77.7131 20.2358L75.0426 18.6591C75.5161 17.911 75.9328 17.0824 76.2926 16.1733C76.6619 15.2642 76.8466 14.2083 76.8466 13.0057V9.90909H81.392ZM100.842 23.4034L95.3018 23.7443C95.2071 23.2708 95.0036 22.8447 94.6911 22.4659C94.3786 22.0777 93.9666 21.7699 93.4553 21.5426C92.9534 21.3059 92.352 21.1875 91.6513 21.1875C90.7138 21.1875 89.9231 21.3864 89.2791 21.7841C88.6352 22.1723 88.3132 22.6932 88.3132 23.3466C88.3132 23.8674 88.5215 24.3078 88.9382 24.6676C89.3549 25.0275 90.0698 25.3163 91.0831 25.5341L95.032 26.3295C97.1532 26.7652 98.7346 27.4659 99.7763 28.4318C100.818 29.3977 101.339 30.6667 101.339 32.2386C101.339 33.6686 100.917 34.9233 100.075 36.0028C99.2412 37.0824 98.0954 37.9252 96.6371 38.5312C95.1882 39.1278 93.5168 39.4261 91.6229 39.4261C88.7346 39.4261 86.4335 38.8248 84.7195 37.6222C83.0149 36.41 82.0159 34.7623 81.7223 32.679L87.674 32.3665C87.8539 33.2472 88.2895 33.9195 88.9808 34.3835C89.6721 34.8381 90.5575 35.0653 91.6371 35.0653C92.6977 35.0653 93.55 34.8617 94.1939 34.4545C94.8473 34.0379 95.1787 33.5028 95.1882 32.8494C95.1787 32.3002 94.9467 31.8504 94.4922 31.5C94.0376 31.1402 93.3369 30.8655 92.3899 30.6761L88.6115 29.9233C86.4808 29.4972 84.8946 28.7585 83.853 27.7074C82.8208 26.6562 82.3047 25.3163 82.3047 23.6875C82.3047 22.286 82.6835 21.0786 83.4411 20.0653C84.2081 19.0521 85.2829 18.2708 86.6655 17.7216C88.0575 17.1723 89.6863 16.8977 91.5518 16.8977C94.3075 16.8977 96.4761 17.4801 98.0575 18.6449C99.6484 19.8097 100.576 21.3958 100.842 23.4034ZM119.535 39H112.944L122.987 9.90909H130.913L140.941 39H134.35L127.063 16.5568H126.836L119.535 39ZM119.123 27.5653H134.691V32.3665H119.123V27.5653ZM150.38 26.3864V39H144.329V17.1818H150.096V21.0312H150.352C150.835 19.7623 151.644 18.7585 152.781 18.0199C153.917 17.2718 155.295 16.8977 156.914 16.8977C158.429 16.8977 159.75 17.2292 160.877 17.892C162.004 18.5549 162.88 19.5019 163.505 20.733C164.13 21.9545 164.442 23.4129 164.442 25.108V39H158.391V26.1875C158.401 24.8523 158.06 23.8106 157.369 23.0625C156.677 22.3049 155.726 21.9261 154.513 21.9261C153.699 21.9261 152.979 22.1013 152.354 22.4517C151.739 22.8021 151.256 23.3134 150.906 23.9858C150.565 24.6487 150.389 25.4489 150.38 26.3864ZM179.041 47.6364C177.081 47.6364 175.4 47.3665 173.999 46.8267C172.607 46.2964 171.499 45.572 170.675 44.6534C169.851 43.7348 169.316 42.7027 169.07 41.5568L174.666 40.804C174.837 41.2396 175.107 41.6468 175.476 42.0256C175.845 42.4044 176.333 42.7074 176.939 42.9347C177.554 43.1714 178.303 43.2898 179.183 43.2898C180.5 43.2898 181.584 42.9678 182.436 42.3239C183.298 41.6894 183.729 40.6241 183.729 39.1278V35.1364H183.473C183.208 35.7424 182.81 36.3153 182.28 36.8551C181.75 37.3949 181.068 37.8352 180.234 38.1761C179.401 38.517 178.407 38.6875 177.251 38.6875C175.613 38.6875 174.122 38.3087 172.777 37.5511C171.442 36.7841 170.376 35.6146 169.581 34.0426C168.795 32.4612 168.402 30.4631 168.402 28.0483C168.402 25.5767 168.804 23.5123 169.609 21.8551C170.414 20.1979 171.484 18.9574 172.82 18.1335C174.164 17.3097 175.637 16.8977 177.237 16.8977C178.459 16.8977 179.482 17.1061 180.305 17.5227C181.129 17.9299 181.792 18.4413 182.294 19.0568C182.805 19.6629 183.198 20.2595 183.473 20.8466H183.7V17.1818H189.709V39.2131C189.709 41.0691 189.254 42.6222 188.345 43.8722C187.436 45.1222 186.177 46.0597 184.567 46.6847C182.966 47.3191 181.125 47.6364 179.041 47.6364ZM179.169 34.142C180.144 34.142 180.968 33.9006 181.641 33.4176C182.322 32.9252 182.843 32.2244 183.203 31.3153C183.572 30.3968 183.757 29.2983 183.757 28.0199C183.757 26.7415 183.577 25.6335 183.217 24.696C182.857 23.7491 182.337 23.0152 181.655 22.4943C180.973 21.9735 180.144 21.7131 179.169 21.7131C178.175 21.7131 177.337 21.983 176.655 22.5227C175.973 23.053 175.457 23.7917 175.107 24.7386C174.756 25.6856 174.581 26.7794 174.581 28.0199C174.581 29.2794 174.756 30.3684 175.107 31.2869C175.466 32.196 175.982 32.9015 176.655 33.4034C177.337 33.8958 178.175 34.142 179.169 34.142ZM204.467 39.4261C202.223 39.4261 200.291 38.9716 198.672 38.0625C197.062 37.1439 195.821 35.8466 194.95 34.1705C194.079 32.4848 193.643 30.4915 193.643 28.1903C193.643 25.946 194.079 23.9763 194.95 22.2812C195.821 20.5862 197.048 19.2652 198.629 18.3182C200.22 17.3712 202.086 16.8977 204.226 16.8977C205.665 16.8977 207.005 17.1297 208.246 17.5938C209.496 18.0483 210.585 18.7348 211.513 19.6534C212.45 20.572 213.179 21.7273 213.7 23.1193C214.221 24.5019 214.482 26.1212 214.482 27.9773V29.6392H196.058V25.8892H208.786C208.786 25.018 208.596 24.2462 208.217 23.5739C207.839 22.9015 207.313 22.3759 206.641 21.9972C205.978 21.6089 205.206 21.4148 204.325 21.4148C203.407 21.4148 202.592 21.6278 201.882 22.054C201.181 22.4706 200.632 23.0341 200.234 23.7443C199.837 24.4451 199.633 25.2263 199.624 26.0881V29.6534C199.624 30.733 199.822 31.6657 200.22 32.4517C200.627 33.2377 201.2 33.8438 201.939 34.2699C202.678 34.696 203.554 34.9091 204.567 34.9091C205.239 34.9091 205.855 34.8144 206.413 34.625C206.972 34.4356 207.45 34.1515 207.848 33.7727C208.246 33.3939 208.549 32.9299 208.757 32.3807L214.354 32.75C214.07 34.0947 213.487 35.2689 212.607 36.2727C211.735 37.267 210.608 38.0436 209.226 38.6023C207.853 39.1515 206.267 39.4261 204.467 39.4261ZM224.482 9.90909V39H218.43V9.90909H224.482ZM247.482 23.4034L241.942 23.7443C241.848 23.2708 241.644 22.8447 241.332 22.4659C241.019 22.0777 240.607 21.7699 240.096 21.5426C239.594 21.3059 238.993 21.1875 238.292 21.1875C237.354 21.1875 236.564 21.3864 235.92 21.7841C235.276 22.1723 234.954 22.6932 234.954 23.3466C234.954 23.8674 235.162 24.3078 235.579 24.6676C235.996 25.0275 236.71 25.3163 237.724 25.5341L241.673 26.3295C243.794 26.7652 245.375 27.4659 246.417 28.4318C247.459 29.3977 247.979 30.6667 247.979 32.2386C247.979 33.6686 247.558 34.9233 246.715 36.0028C245.882 37.0824 244.736 37.9252 243.278 38.5312C241.829 39.1278 240.157 39.4261 238.263 39.4261C235.375 39.4261 233.074 38.8248 231.36 37.6222C229.656 36.41 228.656 34.7623 228.363 32.679L234.315 32.3665C234.495 33.2472 234.93 33.9195 235.621 34.3835C236.313 34.8381 237.198 35.0653 238.278 35.0653C239.338 35.0653 240.191 34.8617 240.835 34.4545C241.488 34.0379 241.819 33.5028 241.829 32.8494C241.819 32.3002 241.587 31.8504 241.133 31.5C240.678 31.1402 239.978 30.8655 239.031 30.6761L235.252 29.9233C233.121 29.4972 231.535 28.7585 230.494 27.7074C229.461 26.6562 228.945 25.3163 228.945 23.6875C228.945 22.286 229.324 21.0786 230.082 20.0653C230.849 19.0521 231.924 18.2708 233.306 17.7216C234.698 17.1723 236.327 16.8977 238.192 16.8977C240.948 16.8977 243.117 17.4801 244.698 18.6449C246.289 19.8097 247.217 21.3958 247.482 23.4034Z" fill="black"/>
<path d="M116.655 17.9629C121.68 18.2231 132.87 17.2343 137.433 11.1973C143.137 3.65118 103.617 17.9629 116.655 17.9629Z" stroke="#F4DD0F" stroke-width="2"/>
</svg>
