<svg width="565" height="119" viewBox="0 0 565 119" fill="none" xmlns="http://www.w3.org/2000/svg">
<path d="M19.875 5L33.75 46L47.5 5H67.4375L42.9375 62.9375V96H24.5V62.9375L0 5H19.875ZM68.875 64.5V59.9375C68.875 54.6458 69.5 49.9583 70.75 45.875C72.0417 41.7917 73.875 38.375 76.25 35.625C78.625 32.8333 81.4792 30.7292 84.8125 29.3125C88.1875 27.8542 91.9583 27.125 96.125 27.125C100.333 27.125 104.104 27.8542 107.438 29.3125C110.812 30.7292 113.688 32.8333 116.062 35.625C118.479 38.375 120.333 41.7917 121.625 45.875C122.917 49.9583 123.562 54.6458 123.562 59.9375V64.5C123.562 69.75 122.917 74.4167 121.625 78.5C120.333 82.5833 118.479 86.0208 116.062 88.8125C113.688 91.6042 110.833 93.7083 107.5 95.125C104.167 96.5417 100.417 97.25 96.25 97.25C92.0833 97.25 88.3125 96.5417 84.9375 95.125C81.6042 93.7083 78.7292 91.6042 76.3125 88.8125C73.8958 86.0208 72.0417 82.5833 70.75 78.5C69.5 74.4167 68.875 69.75 68.875 64.5ZM86.375 59.9375V64.5C86.375 67.625 86.5833 70.3333 87 72.625C87.4583 74.9167 88.1042 76.8125 88.9375 78.3125C89.8125 79.8125 90.8542 80.9167 92.0625 81.625C93.2708 82.3333 94.6667 82.6875 96.25 82.6875C97.8333 82.6875 99.25 82.3333 100.5 81.625C101.75 80.9167 102.771 79.8125 103.562 78.3125C104.396 76.8125 105 74.9167 105.375 72.625C105.792 70.3333 106 67.625 106 64.5V59.9375C106 56.8958 105.771 54.2292 105.312 51.9375C104.854 49.6042 104.208 47.7083 103.375 46.25C102.542 44.75 101.5 43.625 100.25 42.875C99.0417 42.0833 97.6667 41.6875 96.125 41.6875C94.5833 41.6875 93.2083 42.0833 92 42.875C90.8333 43.625 89.8125 44.75 88.9375 46.25C88.1042 47.7083 87.4583 49.6042 87 51.9375C86.5833 54.2292 86.375 56.8958 86.375 59.9375ZM167.312 79.75V28.375H184.875V96H168.375L167.312 79.75ZM169.312 65.8125L174.188 65.6875C174.188 70.2292 173.75 74.4375 172.875 78.3125C172 82.1458 170.688 85.4792 168.938 88.3125C167.188 91.1458 165 93.3542 162.375 94.9375C159.75 96.4792 156.646 97.25 153.062 97.25C150.312 97.25 147.771 96.7917 145.438 95.875C143.146 94.9167 141.167 93.4375 139.5 91.4375C137.833 89.3958 136.521 86.7917 135.562 83.625C134.646 80.4167 134.188 76.5625 134.188 72.0625V28.375H151.75V72.25C151.75 74.0833 151.917 75.6667 152.25 77C152.583 78.2917 153.042 79.3542 153.625 80.1875C154.208 81.0208 154.896 81.625 155.688 82C156.479 82.3333 157.375 82.5 158.375 82.5C161.125 82.5 163.292 81.7917 164.875 80.375C166.5 78.9167 167.646 76.9375 168.312 74.4375C168.979 71.8958 169.312 69.0208 169.312 65.8125ZM215.125 43.4375V96H197.625V28.375H214.125L215.125 43.4375ZM231.062 27.875L230.812 45.3125C230.021 45.1458 229.062 45.0208 227.938 44.9375C226.854 44.8542 225.896 44.8125 225.062 44.8125C223.104 44.8125 221.438 45.125 220.062 45.75C218.688 46.3333 217.542 47.2292 216.625 48.4375C215.75 49.6042 215.083 51.0625 214.625 52.8125C214.167 54.5625 213.896 56.5417 213.812 58.75L210.5 57.5C210.5 53.0833 210.833 49.0417 211.5 45.375C212.208 41.6667 213.25 38.4583 214.625 35.75C216 33 217.646 30.875 219.562 29.375C221.521 27.875 223.729 27.125 226.188 27.125C227.021 27.125 227.896 27.2083 228.812 27.375C229.771 27.5 230.521 27.6667 231.062 27.875ZM564.875 80.625V92.9375C564.875 97.6458 563.708 102.375 561.375 107.125C559.042 111.917 556.083 115.833 552.5 118.875L543.125 114C544.167 112.083 545.188 110.146 546.188 108.188C547.188 106.229 548.021 104.083 548.688 101.75C549.354 99.4167 549.688 96.7708 549.688 93.8125V80.625H564.875Z" fill="black"/>
<path d="M289.375 5V96H271.188V5H289.375ZM336.875 81.0625V0H354.438V96L338.562 96.0625L336.875 81.0625ZM301.812 64.5625V60.0625C301.812 54.5625 302.271 49.75 303.188 45.625C304.146 41.5 305.562 38.0625 307.438 35.3125C309.312 32.5625 311.604 30.5208 314.312 29.1875C317.062 27.8125 320.208 27.125 323.75 27.125C326.958 27.125 329.771 27.9375 332.188 29.5625C334.646 31.1458 336.729 33.375 338.438 36.25C340.146 39.125 341.521 42.5208 342.562 46.4375C343.604 50.3542 344.333 54.6458 344.75 59.3125V65.8125C344.25 70.2292 343.479 74.3542 342.438 78.1875C341.438 82.0208 340.062 85.3542 338.312 88.1875C336.604 91.0208 334.542 93.25 332.125 94.875C329.708 96.4583 326.896 97.25 323.688 97.25C320.146 97.25 317 96.5417 314.25 95.125C311.542 93.7083 309.25 91.625 307.375 88.875C305.542 86.0833 304.146 82.6667 303.188 78.625C302.271 74.5417 301.812 69.8542 301.812 64.5625ZM319.312 60.0625V64.5625C319.312 67.7292 319.458 70.4583 319.75 72.75C320.083 75 320.604 76.8542 321.312 78.3125C322.062 79.7292 323.042 80.7917 324.25 81.5C325.458 82.1667 326.958 82.5 328.75 82.5C331.083 82.5 332.979 81.9167 334.438 80.75C335.896 79.5417 336.979 77.8958 337.688 75.8125C338.438 73.6875 338.854 71.25 338.938 68.5V56.6875C338.854 54.3958 338.583 52.3333 338.125 50.5C337.667 48.6667 337.021 47.1042 336.188 45.8125C335.354 44.5208 334.312 43.5208 333.062 42.8125C331.854 42.1042 330.438 41.75 328.812 41.75C327.062 41.75 325.562 42.1042 324.312 42.8125C323.104 43.5208 322.146 44.625 321.438 46.125C320.729 47.5833 320.188 49.4792 319.812 51.8125C319.479 54.1042 319.312 56.8542 319.312 60.0625ZM394.875 97.25C390.25 97.25 386.146 96.5417 382.562 95.125C379.021 93.7083 376.021 91.6667 373.562 89C371.104 86.2917 369.229 83.0208 367.938 79.1875C366.646 75.3542 366 70.9792 366 66.0625V60.5C366 55 366.625 50.1875 367.875 46.0625C369.125 41.8958 370.896 38.3958 373.188 35.5625C375.479 32.7292 378.292 30.625 381.625 29.25C385 27.8333 388.812 27.125 393.062 27.125C397.312 27.125 401.042 27.8333 404.25 29.25C407.5 30.625 410.188 32.7083 412.312 35.5C414.438 38.25 416.042 41.6667 417.125 45.75C418.208 49.8333 418.75 54.5833 418.75 60V68H373.438V55.6875H401.562V54.125C401.562 51.375 401.271 49.0833 400.688 47.25C400.104 45.375 399.188 43.9792 397.938 43.0625C396.688 42.1458 395.021 41.6875 392.938 41.6875C391.188 41.6875 389.708 42.0417 388.5 42.75C387.292 43.4583 386.333 44.5625 385.625 46.0625C384.917 47.5625 384.396 49.5208 384.062 51.9375C383.729 54.3125 383.562 57.1667 383.562 60.5V66.0625C383.562 69.1875 383.833 71.8125 384.375 73.9375C384.917 76.0208 385.708 77.7292 386.75 79.0625C387.833 80.3542 389.146 81.2917 390.688 81.875C392.229 82.4167 394.021 82.6875 396.062 82.6875C399.146 82.6875 401.917 82.1458 404.375 81.0625C406.875 79.9375 409 78.4167 410.75 76.5L417.75 87.125C416.542 88.7083 414.875 90.2917 412.75 91.875C410.625 93.4583 408.083 94.75 405.125 95.75C402.167 96.75 398.75 97.25 394.875 97.25ZM458.688 80.4375V49.1875C458.688 47.1458 458.438 45.5208 457.938 44.3125C457.479 43.1042 456.771 42.2292 455.812 41.6875C454.896 41.1042 453.771 40.8125 452.438 40.8125C450.938 40.8125 449.688 41.125 448.688 41.75C447.688 42.375 446.938 43.2708 446.438 44.4375C445.979 45.6042 445.75 47 445.75 48.625H428.188C428.188 45.7083 428.75 42.9583 429.875 40.375C431 37.75 432.646 35.4583 434.812 33.5C437.021 31.5 439.646 29.9375 442.688 28.8125C445.729 27.6875 449.146 27.125 452.938 27.125C457.438 27.125 461.438 27.8958 464.938 29.4375C468.438 30.9375 471.208 33.3333 473.25 36.625C475.292 39.9167 476.312 44.1875 476.312 49.4375V79.5625C476.312 83.3542 476.5 86.4375 476.875 88.8125C477.292 91.1875 477.896 93.2292 478.688 94.9375V96H461.062C460.271 94.125 459.667 91.7917 459.25 89C458.875 86.1667 458.688 83.3125 458.688 80.4375ZM460.812 54.6875L460.875 65.1875H454.438C452.771 65.1875 451.312 65.4583 450.062 66C448.854 66.5417 447.833 67.3125 447 68.3125C446.167 69.2708 445.542 70.3958 445.125 71.6875C444.75 72.9792 444.562 74.3542 444.562 75.8125C444.562 77.4375 444.792 78.8125 445.25 79.9375C445.708 81.0625 446.396 81.9167 447.312 82.5C448.229 83.0833 449.312 83.375 450.562 83.375C452.479 83.375 454.146 82.9792 455.562 82.1875C456.979 81.3958 458.021 80.4375 458.688 79.3125C459.396 78.1875 459.625 77.1458 459.375 76.1875L463.375 83C462.875 84.5417 462.188 86.1458 461.312 87.8125C460.479 89.4792 459.417 91.0208 458.125 92.4375C456.833 93.8542 455.229 95.0208 453.312 95.9375C451.438 96.8125 449.208 97.25 446.625 97.25C443 97.25 439.688 96.4167 436.688 94.75C433.688 93.0833 431.312 90.75 429.562 87.75C427.854 84.75 427 81.1875 427 77.0625C427 73.6458 427.542 70.5625 428.625 67.8125C429.75 65.0208 431.417 62.6667 433.625 60.75C435.833 58.7917 438.625 57.2917 442 56.25C445.375 55.2083 449.333 54.6875 453.875 54.6875H460.812ZM519.25 77.75C519.25 76.5833 518.854 75.5417 518.062 74.625C517.271 73.7083 516.021 72.7708 514.312 71.8125C512.604 70.8125 510.333 69.7083 507.5 68.5C504.417 67.25 501.688 65.9583 499.312 64.625C496.938 63.2917 494.917 61.8125 493.25 60.1875C491.625 58.5625 490.396 56.7083 489.562 54.625C488.729 52.5417 488.312 50.1667 488.312 47.5C488.312 44.625 488.833 41.9792 489.875 39.5625C490.958 37.1042 492.5 34.9583 494.5 33.125C496.5 31.25 498.938 29.7917 501.812 28.75C504.729 27.6667 508 27.125 511.625 27.125C516.708 27.125 521.062 28.0208 524.688 29.8125C528.354 31.5625 531.167 34.0208 533.125 37.1875C535.083 40.3542 536.062 44.0417 536.062 48.25H518.562C518.562 46.75 518.333 45.4167 517.875 44.25C517.417 43.0417 516.667 42.1042 515.625 41.4375C514.625 40.7708 513.271 40.4375 511.562 40.4375C510.312 40.4375 509.188 40.7083 508.188 41.25C507.229 41.7917 506.458 42.5208 505.875 43.4375C505.333 44.3125 505.062 45.3542 505.062 46.5625C505.062 47.4792 505.25 48.2917 505.625 49C506.042 49.7083 506.688 50.3958 507.562 51.0625C508.438 51.7292 509.604 52.4375 511.062 53.1875C512.562 53.8958 514.396 54.6875 516.562 55.5625C521.062 57.2292 524.75 59.0208 527.625 60.9375C530.542 62.8542 532.708 65.1042 534.125 67.6875C535.542 70.2292 536.25 73.375 536.25 77.125C536.25 80.125 535.667 82.8542 534.5 85.3125C533.375 87.7708 531.729 89.8958 529.562 91.6875C527.396 93.4792 524.792 94.8542 521.75 95.8125C518.75 96.7708 515.396 97.25 511.688 97.25C506.229 97.25 501.625 96.1667 497.875 94C494.125 91.8333 491.292 89.0625 489.375 85.6875C487.458 82.2708 486.5 78.7292 486.5 75.0625H503.125C503.208 77.3125 503.625 79.0833 504.375 80.375C505.167 81.625 506.229 82.5 507.562 83C508.896 83.5 510.375 83.75 512 83.75C513.625 83.75 514.958 83.5417 516 83.125C517.083 82.6667 517.896 81.9792 518.438 81.0625C518.979 80.1042 519.25 79 519.25 77.75Z" fill="url(#paint0_linear_5_19)"/>
<defs>
<linearGradient id="paint0_linear_5_19" x1="-1" y1="115" x2="573" y2="115" gradientUnits="userSpaceOnUse">
<stop stop-color="#EE0979"/>
<stop offset="1" stop-color="#FF6A00"/>
</linearGradient>
</defs>
</svg>
