<svg width="478" height="124" viewBox="0 0 478 124" fill="none" xmlns="http://www.w3.org/2000/svg">
<path d="M66.3125 43.4375V58.625C66.3125 65.0417 65.5208 70.6667 63.9375 75.5C62.3958 80.2917 60.1875 84.3125 57.3125 87.5625C54.4792 90.7708 51.0417 93.1875 47 94.8125C43 96.4375 38.5625 97.25 33.6875 97.25C28.8125 97.25 24.3542 96.4375 20.3125 94.8125C16.3125 93.1875 12.8542 90.7708 9.9375 87.5625C7.0625 84.3125 4.83333 80.2917 3.25 75.5C1.66667 70.6667 0.875 65.0417 0.875 58.625V43.4375C0.875 36.8542 1.64583 31.1042 3.1875 26.1875C4.72917 21.2292 6.95833 17.1042 9.875 13.8125C12.7917 10.4792 16.25 7.97917 20.25 6.3125C24.25 4.60417 28.6875 3.75 33.5625 3.75C38.4375 3.75 42.875 4.60417 46.875 6.3125C50.875 7.97917 54.3333 10.4792 57.25 13.8125C60.1667 17.1042 62.3958 21.2292 63.9375 26.1875C65.5208 31.1042 66.3125 36.8542 66.3125 43.4375ZM48.125 58.625V43.3125C48.125 38.9792 47.8125 35.2917 47.1875 32.25C46.5625 29.1667 45.625 26.6458 44.375 24.6875C43.125 22.7292 41.6042 21.2917 39.8125 20.375C38.0208 19.4583 35.9375 19 33.5625 19C31.1875 19 29.0833 19.4583 27.25 20.375C25.4583 21.2917 23.9375 22.7292 22.6875 24.6875C21.4792 26.6458 20.5625 29.1667 19.9375 32.25C19.3542 35.2917 19.0625 38.9792 19.0625 43.3125V58.625C19.0625 62.7917 19.375 66.3542 20 69.3125C20.625 72.2708 21.5625 74.6875 22.8125 76.5625C24.0625 78.4375 25.5833 79.8333 27.375 80.75C29.2083 81.625 31.3125 82.0625 33.6875 82.0625C36.0208 82.0625 38.0833 81.625 39.875 80.75C41.7083 79.8333 43.2292 78.4375 44.4375 76.5625C45.6458 74.6875 46.5625 72.2708 47.1875 69.3125C47.8125 66.3542 48.125 62.7917 48.125 58.625ZM111.438 79.75V28.375H129V96H112.5L111.438 79.75ZM113.438 65.8125L118.312 65.6875C118.312 70.2292 117.875 74.4375 117 78.3125C116.125 82.1458 114.812 85.4792 113.062 88.3125C111.312 91.1458 109.125 93.3542 106.5 94.9375C103.875 96.4792 100.771 97.25 97.1875 97.25C94.4375 97.25 91.8958 96.7917 89.5625 95.875C87.2708 94.9167 85.2917 93.4375 83.625 91.4375C81.9583 89.3958 80.6458 86.7917 79.6875 83.625C78.7708 80.4167 78.3125 76.5625 78.3125 72.0625V28.375H95.875V72.25C95.875 74.0833 96.0417 75.6667 96.375 77C96.7083 78.2917 97.1667 79.3542 97.75 80.1875C98.3333 81.0208 99.0208 81.625 99.8125 82C100.604 82.3333 101.5 82.5 102.5 82.5C105.25 82.5 107.417 81.7917 109 80.375C110.625 78.9167 111.771 76.9375 112.438 74.4375C113.104 71.8958 113.438 69.0208 113.438 65.8125ZM159.25 43.4375V96H141.75V28.375H158.25L159.25 43.4375ZM175.188 27.875L174.938 45.3125C174.146 45.1458 173.188 45.0208 172.062 44.9375C170.979 44.8542 170.021 44.8125 169.188 44.8125C167.229 44.8125 165.562 45.125 164.188 45.75C162.812 46.3333 161.667 47.2292 160.75 48.4375C159.875 49.6042 159.208 51.0625 158.75 52.8125C158.292 54.5625 158.021 56.5417 157.938 58.75L154.625 57.5C154.625 53.0833 154.958 49.0417 155.625 45.375C156.333 41.6667 157.375 38.4583 158.75 35.75C160.125 33 161.771 30.875 163.688 29.375C165.646 27.875 167.854 27.125 170.312 27.125C171.146 27.125 172.021 27.2083 172.938 27.375C173.896 27.5 174.646 27.6667 175.188 27.875ZM457.062 87.0625C457.062 84.3125 457.979 82.0208 459.812 80.1875C461.646 78.3125 464.125 77.375 467.25 77.375C470.375 77.375 472.854 78.3125 474.688 80.1875C476.521 82.0208 477.438 84.3125 477.438 87.0625C477.438 89.8125 476.521 92.1042 474.688 93.9375C472.854 95.7708 470.375 96.6875 467.25 96.6875C464.125 96.6875 461.646 95.7708 459.812 93.9375C457.979 92.1042 457.062 89.8125 457.062 87.0625Z" fill="black"/>
<path d="M233.562 82.5L244.438 28.375H262.688L244.125 96H233.188L233.562 82.5ZM227.125 28.375L238.188 82.5625L238.375 96H227.375L208.812 28.375H227.125ZM289.5 28.375V96H271.938V28.375H289.5ZM271.125 10.875C271.125 8.16667 271.979 5.9375 273.688 4.1875C275.438 2.39583 277.771 1.5 280.688 1.5C283.646 1.5 285.979 2.39583 287.688 4.1875C289.396 5.9375 290.25 8.16667 290.25 10.875C290.25 13.5417 289.375 15.7708 287.625 17.5625C285.917 19.3125 283.625 20.1875 280.75 20.1875C277.792 20.1875 275.438 19.3125 273.688 17.5625C271.979 15.7708 271.125 13.5417 271.125 10.875ZM320.562 42.8125V96H303V28.375H319.438L320.562 42.8125ZM317.938 59.875L313.25 60C313.167 54.9167 313.646 50.3542 314.688 46.3125C315.771 42.2708 317.292 38.8333 319.25 36C321.25 33.125 323.625 30.9375 326.375 29.4375C329.167 27.8958 332.271 27.125 335.688 27.125C338.312 27.125 340.708 27.5833 342.875 28.5C345.083 29.4167 346.979 30.875 348.562 32.875C350.146 34.875 351.375 37.5417 352.25 40.875C353.125 44.1667 353.562 48.2083 353.562 53V96H336V52.875C336 49.9583 335.708 47.7083 335.125 46.125C334.542 44.5 333.667 43.375 332.5 42.75C331.333 42.0833 329.875 41.75 328.125 41.75C326.458 41.75 324.979 42.2292 323.688 43.1875C322.396 44.1042 321.312 45.375 320.438 47C319.604 48.625 318.958 50.5417 318.5 52.75C318.083 54.9583 317.896 57.3333 317.938 59.875ZM383.375 88.25L397.5 28.375H415.75L393.5 106.125C393 107.833 392.312 109.667 391.438 111.625C390.562 113.625 389.396 115.5 387.938 117.25C386.521 119.042 384.729 120.5 382.562 121.625C380.396 122.75 377.792 123.312 374.75 123.312C373.208 123.312 371.958 123.208 371 123C370.083 122.833 368.917 122.542 367.5 122.125V108.5C367.875 108.5 368.229 108.5 368.562 108.5C368.938 108.542 369.292 108.562 369.625 108.562C371.583 108.562 373.146 108.292 374.312 107.75C375.479 107.25 376.417 106.458 377.125 105.375C377.875 104.292 378.5 102.938 379 101.312L383.375 88.25ZM379.75 28.375L390.25 76.875L392.625 96.625L380.812 97.75L361 28.375H379.75ZM441.75 0V96H424.188V0H441.75Z" fill="url(#paint0_linear_49_52)"/>
<defs>
<linearGradient id="paint0_linear_49_52" x1="1.77258" y1="111" x2="443.982" y2="111" gradientUnits="userSpaceOnUse">
<stop stop-color="#EE0979"/>
<stop offset="1" stop-color="#FF461E"/>
</linearGradient>
</defs>
</svg>
